<svg version="1.1" id="Layer_1" xmlns="http://www.w3.org/2000/svg"
    xmlns:xlink="http://www.w3.org/1999/xlink" x="0px" y="0px" width="102px" height="120px"
    viewBox="0 0 408 480" xml:space="preserve">
    <path d="M230.333,414c20-16,48.792-28.263,63.667-25c22.333-27.333,45-44.333,71.553-25.833c-14.667-13.667-8.269-41.428-7.5-47.834
       c2.344-19.531-7.74-56.833-7.74-56.833s-2.26-7.167,5.073-16.833c7.334-9.667,13-5,13-5s-7.666-24.667-5.333-35
       c2.333-10.334,9.917-17.292,19.292-25.979c9.375-8.688,4.021-20.73,7.031-34.375c3.01-13.646,9.01-32.98,9.01-32.98l2-34.333
       c0,0-5.666-7.333-7.666-16.667c-2-9.333,0.333-14.666,1.666-25.333c1.334-10.667,5-13.333-5.666-20.333
       c-10.667-7-23.125-0.792-36.063,7.771C339.72,28,328.136,38.646,313.595,56.156C299.053,73.667,278.053,97,267.22,102.833
       c-10.834,5.834-15.292,0.77-16.125-2.145c-5.503,6.813-39.978,3.274-47.095,0.312v171c4-25,12.22-32.5,26.72-28.667
       c-10.334-16.666,5-43,33.666-41.333c28.667,1.667,32,14.667,32.5,26.667s-8.166,14-8.166,14c-0.104-6.681-15.334-11.334-32-7.334
       c-16.667,4-22,32.334-22,32.334s-1,8.333-9.334,7.666c13,10.667,0.487,33.168,7.667,40.667c7.695,8.038,17.354,22.01,17,29
       c-0.848,16.683-14.93,23.252-28.664,23.485c-1.497,0.025-16.003-0.152-12.669-13.152c7.666-1.666,15.666-3.666,16-18.666
       C223.72,325,213.18,325.146,204,326v36c0,9,42.897,17.783,55.386-4c1.606-2.801,2.492-10.935,0.667-18
       c-1.453-5.624-5.425-9.73-6.333-16c-0.915-6.311,2.103-12.73,2-17.667c-0.334-16-15.003-36.694-14.667-36.666
       c7.842,0.658,23.656,0.338,29.667-2.667c11.333-5.667,18.666-16.667,18.666-16.667s3.5-8.333,14.667-4.333s17,23.333,13.833,34.5
       c-3.166,11.167-35.219,8.167-35.219,8.167s35,32,49.333,20.666c14.333-11.333,3.553-50,3.553-50s-3.833,3.5-6.833,3.834
       c-3,0.333-3.5-0.334,1.5-6.5c5-6.167,3.666-12.834,3.666-12.834s-3.833,5.334-7.666,6.167c-3.834,0.833-2.334-3,0.5-7.167
       c2.833-4.166,2.666-11.5,2.666-11.5s-15.333,7.667-9.833-0.666c5.5-8.334-0.833-27.667-0.833-27.667
       c-2.001,9-56.084-10.796-27.334-14.667c-10.666-15-32-23.666-49.333-21.333c-11.833-9-17.833-12-16.833-27.5s18-17,18-17
       s-5,2.5-2,14s21.5,20,21.5,20s-5-21.167,10-32.5s18-6.5,18-6.5s-20.667,8.833-20,25.167c0.666,16.333,6.302,21.239,6.302,21.239
       s7.031-12.239,22.698-12.906c15.666-0.667,34.333,13,34.333,13c-5.536-4.218,10-25.833,10-25.833s-7.167-1.334-11.5-3.667
       s-3.167-5.167,3-5.5s10.073-3.312,10.073-3.312s-6.573-1.021-13.573-4.855c-7-3.833-10.646-9.208-10.646-9.208
       c-1.688-11.625,12.646-8.625,21.094,0c0,0,1.219-4.958-6.781-11.292c-8-6.333-11.819-10.61-5.993-10.055
       c5.826,0.555,9.649,0.253,9.649,0.253s-5.823-4.198-9.49-8.031c-3.063-3.202-12.5-9.833,7.834-37.5
       c20.333-27.667,44.5-24.167,44.5-24.167s3.666,6.834,4.166,14.834s-4.823,19.708-4.823,19.708s10.146,15.885,10.49,33.292
       C392.396,106.073,376.22,120,376.22,120s11.447,4,0.447,27.333c-11,23.334-20.885,15.855-20.885,15.855s10.051,15.406-1.115,34.145
       C343.5,216.073,330,209,330,209s23.72,17,15.72,44c2.333,15.333,8.166,44.333,6.5,54c-1.667,9.667,0.5,14.833-11,21.5
       S284.333,315,272.667,302c15,23.333,36.666,44,22.666,60s-29.666,7.667-48.666,25S204,389,204,389v81
       C204,470,210.333,430,230.333,414" />
    <path d="M177.667,414c-20-16-48.792-28.263-63.667-25c-22.333-27.333-45-44.333-71.552-25.833
       c14.667-13.667,8.269-41.428,7.5-47.834c-2.344-19.531,7.74-56.833,7.74-56.833s2.26-7.167-5.073-16.833c-7.334-9.667-13-5-13-5
       s7.666-24.667,5.333-35c-2.333-10.334-9.917-17.292-19.292-25.979c-9.375-8.688-4.021-20.73-7.031-34.375
       c-3.01-13.646-9.01-32.98-9.01-32.98L7.614,74c0,0,5.666-7.333,7.666-16.667C17.28,48,14.947,42.667,13.614,32
       c-1.334-10.667-5-13.333,5.666-20.333c10.667-7,23.125-0.792,36.063,7.771C68.28,28,79.864,38.646,94.405,56.156
       C108.947,73.667,129.947,97,140.78,102.833c10.834,5.834,15.292,0.77,16.125-2.145c5.503,6.813,39.978,3.274,47.094,0.312v171
       c-4-25-12.219-32.5-26.719-28.667c10.334-16.666-5-43-33.666-41.333c-28.667,1.667-32,14.667-32.5,26.667s8.166,14,8.166,14
       c0.104-6.681,15.334-11.334,32-7.334c16.667,4,22,32.334,22,32.334s1,8.333,9.334,7.666c-13,10.667-0.488,33.168-7.667,40.667
       c-7.696,8.038-17.355,22.01-17,29c0.847,16.683,14.93,23.252,28.664,23.485c1.497,0.025,16.003-0.152,12.669-13.152
       c-7.666-1.666-15.666-3.666-16-18.666c1-11.667,11.54-11.521,20.719-10.667v36c0,9-42.896,17.783-55.385-4
       c-1.606-2.801-2.492-10.935-0.667-18c1.452-5.624,5.425-9.73,6.333-16c0.915-6.311-2.103-12.73-2-17.667
       c0.334-16,15.003-36.694,14.667-36.666c-7.843,0.658-23.656,0.338-29.667-2.667c-11.333-5.667-18.666-16.667-18.666-16.667
       s-3.5-8.333-14.667-4.333s-17,23.333-13.833,34.5c3.166,11.167,35.219,8.167,35.219,8.167s-35,32-49.334,20.666
       c-14.333-11.333-3.552-50-3.552-50s3.833,3.5,6.833,3.834c3,0.333,3.5-0.334-1.5-6.5c-5-6.167-3.666-12.834-3.666-12.834
       s3.833,5.334,7.666,6.167c3.834,0.833,2.334-3-0.5-7.167c-2.833-4.166-2.666-11.5-2.666-11.5s15.333,7.667,9.833-0.666
       C82.947,222.333,89.28,203,89.28,203c2,9,56.084-10.796,27.334-14.667c10.666-15,32-23.666,49.333-21.333
       c11.833-9,17.833-12,16.833-27.5s-18-17-18-17s5,2.5,2,14s-21.5,20-21.5,20s5-21.167-10-32.5s-18-6.5-18-6.5s20.667,8.833,20,25.167
       c-0.666,16.333-6.302,21.239-6.302,21.239S123.947,151.667,108.28,151c-15.666-0.667-34.333,13-34.333,13
       c5.536-4.218-10-25.833-10-25.833s7.167-1.334,11.5-3.667s3.167-5.167-3-5.5s-10.073-3.312-10.073-3.312s6.573-1.021,13.573-4.855
       c7-3.833,10.646-9.208,10.646-9.208C88.28,100,73.947,103,65.5,111.625c0,0-1.219-4.958,6.781-11.292
       c8-6.333,11.819-10.61,5.993-10.055c-5.826,0.555-9.649,0.253-9.649,0.253s5.823-4.198,9.49-8.031
       c3.063-3.202,12.5-9.833-7.834-37.5c-20.333-27.667-44.5-24.167-44.5-24.167s-3.666,6.834-4.166,14.834s4.823,19.708,4.823,19.708
       S16.292,71.26,15.947,88.667C15.604,106.073,31.78,120,31.78,120s-11.447,4-0.447,27.333c11,23.334,20.885,15.855,20.885,15.855
       s-10.052,15.406,1.115,34.145C64.5,216.073,78,209,78,209S54.28,226,62.28,253c-2.333,15.333-8.166,44.333-6.5,54
       c1.667,9.667-0.5,14.833,11,21.5s56.886-13.5,68.553-26.5c-15,23.333-36.667,44-22.667,60s29.667,7.667,48.667,25s42.666,2,42.666,2
       v81C203.999,470,197.666,430,177.667,414" />
</svg>

